<?xml version="1.0" encoding="UTF-8" standalone="no"?><svg width="32" height="64" viewBox="0 0 32 64" xmlns="http://www.w3.org/2000/svg" xmlns:xlink="http://www.w3.org/1999/xlink"><svg y="0" xmlns="http://www.w3.org/2000/svg" width="32" height="32" fill="#fff"><path opacity=".25" d="M16 0a16 16 0 0 0 0 32 16 16 0 0 0 0-32m0 4a12 12 0 0 1 0 24 12 12 0 0 1 0-24"/><path d="M16 0a16 16 0 0 1 16 16h-4A12 12 0 0 0 16 4z"><animateTransform attributeName="transform" type="rotate" from="0 16 16" to="360 16 16" dur="0.8s" repeatCount="indefinite"/></path></svg><svg y="32" width="32" height="64" xmlns="http://www.w3.org/2000/svg" xmlns:xlink="http://www.w3.org/1999/xlink"><svg xmlns="http://www.w3.org/2000/svg" width="32" height="32" fill="#fff"><path opacity=".25" d="M16 0a16 16 0 0 0 0 32 16 16 0 0 0 0-32m0 4a12 12 0 0 1 0 24 12 12 0 0 1 0-24"/><path d="M16 0a16 16 0 0 1 16 16h-4A12 12 0 0 0 16 4z"><animateTransform attributeName="transform" type="rotate" from="0 16 16" to="360 16 16" dur="0.8s" repeatCount="indefinite"/></path></svg><svg y="32" width="32" height="64" xmlns="http://www.w3.org/2000/svg" xmlns:xlink="http://www.w3.org/1999/xlink"><svg xmlns="http://www.w3.org/2000/svg" width="32" height="32" fill="#fff"><path opacity=".25" d="M16 0a16 16 0 0 0 0 32 16 16 0 0 0 0-32m0 4a12 12 0 0 1 0 24 12 12 0 0 1 0-24"/><path d="M16 0a16 16 0 0 1 16 16h-4A12 12 0 0 0 16 4z"><animateTransform attributeName="transform" type="rotate" from="0 16 16" to="360 16 16" dur="0.8s" repeatCount="indefinite"/></path></svg><svg y="32" width="32" height="32" xmlns="http://www.w3.org/2000/svg" xmlns:xlink="http://www.w3.org/1999/xlink"><svg xmlns="http://www.w3.org/2000/svg" width="32" height="32" fill="#fff"><path opacity=".25" d="M16 0a16 16 0 0 0 0 32 16 16 0 0 0 0-32m0 4a12 12 0 0 1 0 24 12 12 0 0 1 0-24"/><path d="M16 0a16 16 0 0 1 16 16h-4A12 12 0 0 0 16 4z"><animateTransform attributeName="transform" type="rotate" from="0 16 16" to="360 16 16" dur="0.8s" repeatCount="indefinite"/></path></svg></svg></svg></svg></svg>